<svg xmlns="http://www.w3.org/2000/svg" xmlns:xlink="http://www.w3.org/1999/xlink" version="1.1" x="0px" y="0px" viewBox="0 0 512 640" style="enable-background:new 0 0 512 512;" xml:space="preserve"><g><g><path d="M462.4,392.4l-413.4-2l-1.6-5.9c-4-14.6-6.2-33.4-6.1-51.6c0.3-57.3,22.9-111.1,63.6-151.3    c40.5-40,94.1-61.9,151.1-61.9c0.4,0,0.7,0,1,0c57.4,0.3,111.2,22.8,151.5,63.4c40.4,40.7,62.4,94.6,62.2,152    c-0.1,18.4-2.4,36.6-6.6,51.4L462.4,392.4z M61.4,374.5l388.8,1.8c2.8-12.2,4.4-26.9,4.5-41.3c0.5-109.4-88.2-198.8-197.8-199.3    c-0.3,0-0.6,0-1,0c-52.7,0-102.4,20.3-139.8,57.3c-37.7,37.2-58.6,87-58.9,140C57.2,347.5,58.7,362.3,61.4,374.5z"/><g><path d="M256,196c-4.4,0-8-3.6-8-8v-34c0-4.4,3.6-8,8-8s8,3.6,8,8v34C264,192.4,260.4,196,256,196z"/><path d="M185.4,216c-2.8,0-5.5-1.4-6.9-4l-16.9-29.3c-2.2-3.8-0.9-8.7,2.9-10.9c3.8-2.2,8.7-0.9,10.9,2.9     l16.9,29.3c2.2,3.8,0.9,8.7-2.9,10.9C188.1,215.6,186.8,216,185.4,216z"/><path d="M134.1,268.4c-1.4,0-2.7-0.3-4-1.1l-29.3-16.9c-3.8-2.2-5.1-7.1-2.9-10.9c2.2-3.8,7.1-5.1,10.9-2.9     l29.3,16.9c3.8,2.2,5.1,7.1,2.9,10.9C139.5,266.9,136.8,268.4,134.1,268.4z"/><path d="M115,340H82c-4.4,0-8-3.6-8-8s3.6-8,8-8h33c4.4,0,8,3.6,8,8S119.4,340,115,340z"/><path d="M434,337h-34c-4.4,0-8-3.6-8-8s3.6-8,8-8h34c4.4,0,8,3.6,8,8S438.4,337,434,337z"/><path d="M380.2,265.7c-2.8,0-5.5-1.4-6.9-4c-2.2-3.8-0.9-8.7,2.9-10.9l29.3-16.9c3.8-2.2,8.7-0.9,10.9,2.9     c2.2,3.8,0.9,8.7-2.9,10.9l-29.3,16.9C382.9,265.3,381.6,265.7,380.2,265.7z"/><path d="M327.6,214c-1.4,0-2.7-0.3-4-1.1c-3.8-2.2-5.1-7.1-2.9-10.9l16.9-29.3c2.2-3.8,7.1-5.1,10.9-2.9     c3.8,2.2,5.1,7.1,2.9,10.9L334.6,210C333.1,212.6,330.4,214,327.6,214z"/></g><g><path d="M256,354.8c-17.2,0-31.2-14-31.2-31.2s14-31.2,31.2-31.2c17.2,0,31.2,14,31.2,31.2     S273.3,354.8,256,354.8z M256,308.4c-8.4,0-15.2,6.8-15.2,15.2s6.8,15.2,15.2,15.2c8.4,0,15.2-6.8,15.2-15.2     S264.4,308.4,256,308.4z"/><path d="M269.6,312.8c-2,0-4-0.8-5.6-2.3c-3.2-3.1-3.2-8.2-0.1-11.3l53.6-54.7c3.1-3.2,8.2-3.2,11.3-0.1     c3.2,3.1,3.2,8.2,0.1,11.3l-53.6,54.7C273.7,312,271.6,312.8,269.6,312.8z"/></g></g></g><text x="0" y="527" fill="#000000" font-size="5px" font-weight="bold" font-family="'Helvetica Neue', Helvetica, Arial-Unicode, Arial, Sans-serif">Created by QualityIcons</text><text x="0" y="532" fill="#000000" font-size="5px" font-weight="bold" font-family="'Helvetica Neue', Helvetica, Arial-Unicode, Arial, Sans-serif">from the Noun Project</text></svg>