<svg xmlns="http://www.w3.org/2000/svg" xmlns:xlink="http://www.w3.org/1999/xlink" xml:space="preserve" version="1.1" style="shape-rendering:geometricPrecision;text-rendering:geometricPrecision;image-rendering:optimizeQuality;" viewBox="0 0 846.66 1058.325" x="0px" y="0px" fill-rule="evenodd" clip-rule="evenodd"><defs><style type="text/css">
   
    .fil0 {fill:black}
   
  </style></defs><g><path class="fil0" d="M755.69 244.39l-56.34 -136.19 -556.1 0 -56.34 136.19 94.02 0c191.59,0 383.17,0 574.76,0zm-309.06 266.34l0 227.73 123.98 0 0 -227.73 -123.98 0zm365.33 -250.4l0 62.5c0,37.52 -21.98,71.49 -55.8,87.23l0 374.46 -669.72 0 0 -376.46c-31.63,-16.57 -51.75,-49.31 -51.75,-85.23l0 -72.27 77.94 -188.41c205.78,0 411.56,0 617.34,0l81.99 198.18zm-101.85 158.48c-26.17,-1.55 -50.44,-13.78 -67.42,-33.69 -38.41,45.03 -107.74,45.14 -146.24,0 -38.5,45.14 -107.74,45.09 -146.25,0 -38.51,45.08 -107.74,45.14 -146.24,0 -17.91,20.99 -43.82,33.37 -71.47,33.84l0 319.5 97.49 0 0 -273.79c128.9,0 257.79,0 386.69,0l0 273.79 93.44 0 0 -319.65zm-434.07 319.65l123.98 0 0 -227.73 -123.98 0 0 227.73zm389.68 -415.63c0,66.12 100.19,66.12 100.19,0l0 -32.39 -100.19 0 0 32.39zm-146.25 0c0,66.12 100.19,66.12 100.19,0l0 -32.39 -100.19 0 0 32.39zm-146.24 0c0,66.12 100.19,66.12 100.19,0l0 -32.39 -100.19 0 0 32.39zm-146.25 0c0,66.12 100.19,66.12 100.19,0l0 -32.39 -100.19 0 0 32.39zm-146.24 -32.39l0 32.39c0,66.95 100.19,64.84 100.19,0l0 -32.39 -100.19 0z"/></g><text x="0" y="861.66" fill="#000000" font-size="5px" font-weight="bold" font-family="'Helvetica Neue', Helvetica, Arial-Unicode, Arial, Sans-serif">Created by wardehpillai</text><text x="0" y="866.66" fill="#000000" font-size="5px" font-weight="bold" font-family="'Helvetica Neue', Helvetica, Arial-Unicode, Arial, Sans-serif">from the Noun Project</text></svg>